<?xml version="1.0" encoding="UTF-8" standalone="no"?>
<!-- Created with Inkscape (http://www.inkscape.org/) -->

<svg
   xmlns:dc="http://purl.org/dc/elements/1.1/"
   xmlns:cc="http://creativecommons.org/ns#"
   xmlns:rdf="http://www.w3.org/1999/02/22-rdf-syntax-ns#"
   xmlns:svg="http://www.w3.org/2000/svg"
   xmlns="http://www.w3.org/2000/svg"
   xmlns:sodipodi="http://sodipodi.sourceforge.net/DTD/sodipodi-0.dtd"
   xmlns:inkscape="http://www.inkscape.org/namespaces/inkscape"
   id="svg2"
   version="1.1"
   inkscape:version="0.48.1 r9760"
   width="637.91248"
   height="235.38148"
   xml:space="preserve"
   sodipodi:docname="wazoku-logo.svg"><metadata
     id="metadata8"><rdf:RDF><cc:Work
         rdf:about=""><dc:format>image/svg+xml</dc:format><dc:type
           rdf:resource="http://purl.org/dc/dcmitype/StillImage" /><dc:title></dc:title></cc:Work></rdf:RDF></metadata><defs
     id="defs6"><clipPath
       clipPathUnits="userSpaceOnUse"
       id="clipPath16"><path
         d="M 0,792 612,792 612,0 0,0 0,792 z"
         id="path18"
         inkscape:connector-curvature="0" /></clipPath><linearGradient
       x1="0"
       y1="0"
       x2="1"
       y2="0"
       gradientUnits="userSpaceOnUse"
       gradientTransform="matrix(-7,-265.99927,-265.99927,7,454.71094,538.47998)"
       spreadMethod="pad"
       id="linearGradient68"><stop
         style="stop-opacity:1;stop-color:#364ea9"
         offset="0"
         id="stop70" /><stop
         style="stop-opacity:1;stop-color:#182745"
         offset="0.774719"
         id="stop72" /><stop
         style="stop-opacity:1;stop-color:#182745"
         offset="0.774719"
         id="stop74" /><stop
         style="stop-opacity:1;stop-color:#182745"
         offset="1"
         id="stop76" /></linearGradient><linearGradient
       x1="0"
       y1="0"
       x2="1"
       y2="0"
       gradientUnits="userSpaceOnUse"
       gradientTransform="matrix(0,-103,-103,0,197.17676,503)"
       spreadMethod="pad"
       id="linearGradient92"><stop
         style="stop-opacity:1;stop-color:#f4ac0f"
         offset="0"
         id="stop94" /><stop
         style="stop-opacity:1;stop-color:#e34b1e"
         offset="1"
         id="stop96" /></linearGradient><linearGradient
       x1="0"
       y1="0"
       x2="1"
       y2="0"
       gradientUnits="userSpaceOnUse"
       gradientTransform="matrix(0,-103,-103,0,267.0293,503)"
       spreadMethod="pad"
       id="linearGradient112"><stop
         style="stop-opacity:1;stop-color:#f4ac0f"
         offset="0"
         id="stop114" /><stop
         style="stop-opacity:1;stop-color:#e34b1e"
         offset="1"
         id="stop116" /></linearGradient><linearGradient
       x1="0"
       y1="0"
       x2="1"
       y2="0"
       gradientUnits="userSpaceOnUse"
       gradientTransform="matrix(0,-103,-103,0,338.05273,503)"
       spreadMethod="pad"
       id="linearGradient132"><stop
         style="stop-opacity:1;stop-color:#f4ac0f"
         offset="0"
         id="stop134" /><stop
         style="stop-opacity:1;stop-color:#e34b1e"
         offset="1"
         id="stop136" /></linearGradient><linearGradient
       x1="0"
       y1="0"
       x2="1"
       y2="0"
       gradientUnits="userSpaceOnUse"
       gradientTransform="matrix(1,-102,-102,-1,415.30078,450.88574)"
       spreadMethod="pad"
       id="linearGradient152"><stop
         style="stop-opacity:1;stop-color:#f9f9f9"
         offset="0"
         id="stop154" /><stop
         style="stop-opacity:1;stop-color:#e2e2e2"
         offset="0.868134"
         id="stop156" /><stop
         style="stop-opacity:1;stop-color:#e2e2e2"
         offset="0.868134"
         id="stop158" /><stop
         style="stop-opacity:1;stop-color:#e2e2e2"
         offset="1"
         id="stop160" /></linearGradient><clipPath
       clipPathUnits="userSpaceOnUse"
       id="clipPath168"><path
         d="M 0,792 612,792 612,0 0,0 0,792 z"
         id="path170"
         inkscape:connector-curvature="0" /></clipPath><linearGradient
       x1="0"
       y1="0"
       x2="1"
       y2="0"
       gradientUnits="userSpaceOnUse"
       gradientTransform="matrix(0.9999847,-101.99872,-101.99872,-0.9999847,488.9248,451.60645)"
       spreadMethod="pad"
       id="linearGradient192"><stop
         style="stop-opacity:1;stop-color:#f9f9f9"
         offset="0"
         id="stop194" /><stop
         style="stop-opacity:1;stop-color:#e2e2e2"
         offset="0.868134"
         id="stop196" /><stop
         style="stop-opacity:1;stop-color:#e2e2e2"
         offset="0.868134"
         id="stop198" /><stop
         style="stop-opacity:1;stop-color:#e2e2e2"
         offset="1"
         id="stop200" /></linearGradient><linearGradient
       x1="0"
       y1="0"
       x2="1"
       y2="0"
       gradientUnits="userSpaceOnUse"
       gradientTransform="matrix(0,-103,-103,0,112.65088,503)"
       spreadMethod="pad"
       id="linearGradient216"><stop
         style="stop-opacity:1;stop-color:#f4ac0f"
         offset="0"
         id="stop218" /><stop
         style="stop-opacity:1;stop-color:#e34b1e"
         offset="1"
         id="stop220" /></linearGradient></defs><sodipodi:namedview
     pagecolor="#ffffff"
     bordercolor="#666666"
     borderopacity="1"
     objecttolerance="10"
     gridtolerance="10"
     guidetolerance="10"
     inkscape:pageopacity="0"
     inkscape:pageshadow="2"
     inkscape:window-width="640"
     inkscape:window-height="480"
     id="namedview4"
     showgrid="false"
     inkscape:zoom="0.26464646"
     inkscape:cx="317.5"
     inkscape:cy="110.88274"
     inkscape:window-x="0"
     inkscape:window-y="0"
     inkscape:window-maximized="0"
     inkscape:current-layer="g10"
     fit-margin-left="10"
     fit-margin-top="10"
     fit-margin-right="10"
     fit-margin-bottom="10" /><g
     id="g10"
     inkscape:groupmode="layer"
     inkscape:label="wazoku1"
     transform="matrix(1.25,0,0,-1.25,-65,619.49875)"><g
       id="g12"><g
         id="g14"
         clip-path="url(#clipPath16)"><g
           id="g20"
           transform="translate(429.2314,481.4902)"><path
             d="m 0,0 c -1.604,-0.123 -3.206,-0.493 -4.687,-0.74 -0.615,0 -1.109,0 -1.602,-0.246 -1.11,-0.247 -2.22,-0.37 -3.206,-0.493 -0.617,-0.125 -1.234,-0.371 -1.973,-0.494 -5.919,-1.233 -11.468,-2.836 -17.015,-4.809 -8.756,-3.452 -17.141,-8.015 -24.909,-13.441 -0.863,-0.74 -1.726,-1.356 -2.589,-1.972 -1.603,-1.233 -3.082,-2.589 -4.686,-3.946 -4.438,-3.822 -8.508,-8.014 -11.714,-12.454 -0.493,-0.493 -0.739,-0.863 -1.109,-1.356 -0.37,-0.493 -0.74,-1.11 -1.234,-1.727 -1.356,-1.725 -2.465,-3.699 -3.452,-5.549 -2.959,-5.424 -5.178,-11.22 -6.412,-17.261 -0.124,-0.617 -0.124,-1.234 -0.37,-1.974 l 0,-0.123 c -0.492,-2.712 -0.863,-5.549 -0.986,-8.385 l 0,-2.343 0,-1.356 c 0,-16.645 5.672,-31.442 17.016,-44.39 1.973,-1.972 3.946,-4.068 5.918,-6.042 2.343,-2.096 4.564,-4.192 7.029,-6.165 20.345,-15.413 44.636,-23.181 72.874,-23.181 14.673,0 28.236,2.219 40.567,6.412 L 98.891,-170.9 c 0.739,-0.371 1.479,-0.371 2.219,-0.124 0.986,0.247 1.726,0.616 2.096,0.862 0.246,0.864 0.369,1.603 0.246,2.221 -0.123,0.493 -0.616,1.109 -1.232,1.602 -10.852,6.782 -17.51,15.413 -19.853,25.894 2.59,1.726 5.056,3.33 7.276,5.179 20.221,15.66 30.456,34.526 30.456,56.597 0,13.44 -3.824,25.648 -11.467,36.622 -0.987,1.603 -2.221,3.205 -3.33,4.809 -4.316,5.301 -9.494,10.357 -15.659,15.043 -5.672,4.315 -11.592,8.014 -18.003,11.22 -1.233,0.618 -2.343,1.11 -3.452,1.727 -7.892,3.576 -16.277,6.165 -25.155,7.769 -0.74,0.123 -1.603,0.246 -2.343,0.493 C 33.169,0.37 25.154,1.109 16.893,1.109 l -0.988,0 C 14.796,1.109 13.687,0.986 12.7,0.863 8.384,0.739 4.191,0.493 0,0"
             style="fill:#e5e4e4;fill-opacity:1;fill-rule:nonzero;stroke:none"
             id="path22"
             inkscape:connector-curvature="0" /></g><g
           id="g24"
           transform="translate(182.251,382.4766)"><path
             d="m 0,0 c 0,3.699 1.356,6.165 3.822,7.274 5.796,2.713 10.975,2.343 15.29,-1.356 l 0,-10.357 C 15.906,-8.016 11.467,-9.248 5.672,-8.016 4.192,-7.646 2.959,-6.906 1.973,-5.919 0.739,-4.316 0,-2.344 0,0 m 9.371,33.662 c 0.37,0 0.616,0 0.986,-0.123 2.713,-0.247 4.686,-0.863 6.166,-1.85 1.726,-1.233 2.589,-3.699 2.589,-7.029 l 0,-3.699 c -9.248,3.946 -18.373,4.439 -27.004,1.48 -3.083,-1.11 -5.919,-2.712 -8.138,-4.562 -2.466,-2.097 -4.193,-4.563 -5.548,-7.646 -1.48,-3.083 -2.097,-6.658 -2.097,-10.727 0,-5.549 0.987,-10.235 2.836,-14.18 0.987,-1.972 2.343,-3.699 3.946,-5.179 4.316,-4.315 10.234,-6.535 17.632,-6.535 3.453,0 6.782,0.617 9.865,1.85 3.206,1.11 6.042,2.836 8.508,4.685 l 0,-5.055 24.414,0 0,48.952 c 0,8.878 -2.342,15.66 -7.275,20.715 -4.808,4.932 -12.453,7.398 -22.934,7.398 -6.658,0 -12.578,-0.616 -17.88,-1.849 -3.699,-0.74 -7.274,-1.85 -10.727,-3.205 -1.356,-0.617 -2.589,-1.111 -3.946,-1.728 l 6.659,-17.139 c 4.685,4.193 11.961,6.042 21.948,5.426"
             style="fill:#e5e4e4;fill-opacity:1;fill-rule:nonzero;stroke:none"
             id="path26"
             inkscape:connector-curvature="0" /></g><g
           id="g28"
           transform="translate(230.5864,433.4004)"><path
             d="m 0,0 0,-21.207 14.18,0 c 3.083,0 6.535,0.123 10.358,0.246 3.699,0.123 6.781,0.246 9.125,0.37 -0.987,-0.864 -1.974,-1.973 -3.454,-3.453 -0.123,0 -0.123,-0.123 -0.246,-0.246 -1.48,-1.604 -3.082,-3.206 -4.809,-4.81 -1.603,-1.849 -3.329,-3.576 -5.055,-5.425 -1.849,-1.85 -3.577,-3.7 -5.179,-5.425 l -16.523,-18.126 0,-18.125 66.092,0 0,21.084 -15.783,0 c -3.206,0 -6.659,-0.123 -10.358,-0.123 -3.206,-0.123 -5.796,-0.246 -7.891,-0.369 l -1.357,0 c 0.986,0.986 2.219,2.218 3.699,3.699 1.603,1.602 3.083,3.205 4.685,4.808 1.727,1.85 3.577,3.577 5.303,5.426 1.85,1.849 3.452,3.698 5.056,5.425 L 64.489,-18.125 64.489,0 0,0 z"
             style="fill:#e5e4e4;fill-opacity:1;fill-rule:nonzero;stroke:none"
             id="path30"
             inkscape:connector-curvature="0" /></g><g
           id="g32"
           transform="translate(340.6982,409.3564)"><path
             d="m 0,0 c 1.726,-2.836 2.589,-7.521 2.589,-13.934 0,-7.891 -1.356,-13.316 -3.945,-16.153 -1.727,-1.726 -3.824,-2.589 -6.413,-2.589 -6.905,0 -10.234,6.288 -10.234,18.742 0,5.302 0.617,9.619 1.85,12.455 0.246,0.493 0.37,1.109 0.74,1.479 1.725,2.96 4.315,4.438 7.644,4.438 C -4.316,4.438 -1.728,2.96 0,0 m -38.595,9.248 c -0.986,-1.85 -1.973,-3.699 -2.59,-5.919 -1.849,-4.932 -2.712,-10.727 -2.712,-17.263 0,-6.658 0.863,-12.454 2.712,-17.385 1.727,-4.932 4.317,-9.125 7.399,-12.454 3.206,-3.33 7.028,-5.919 11.592,-7.521 4.437,-1.727 9.247,-2.713 14.425,-2.713 5.302,0 10.112,0.986 14.551,2.713 4.439,1.602 8.261,4.191 11.59,7.521 0.986,0.987 1.974,2.096 2.712,3.329 1.974,2.59 3.577,5.673 4.81,9.125 1.849,4.931 2.712,10.727 2.712,17.385 0,6.536 -0.863,12.331 -2.712,17.263 -1.727,5.056 -4.316,9.248 -7.522,12.578 -3.329,3.205 -7.151,5.671 -11.59,7.275 -4.439,1.725 -9.249,2.465 -14.551,2.465 -5.178,0 -9.988,-0.74 -14.425,-2.465 -4.564,-1.604 -8.386,-4.07 -11.592,-7.275 -1.85,-1.973 -3.329,-4.193 -4.809,-6.659"
             style="fill:#e5e4e4;fill-opacity:1;fill-rule:nonzero;stroke:none"
             id="path34"
             inkscape:connector-curvature="0" /></g><g
           id="g36"
           transform="translate(417.0234,433.4004)"><path
             d="m 0,0 -4.932,-6.534 c -0.863,-0.987 -1.849,-2.343 -2.836,-3.946 -1.233,-1.48 -2.343,-3.083 -3.453,-4.563 -1.109,-1.603 -2.096,-3.205 -3.083,-4.562 -0.863,-1.356 -1.725,-2.466 -2.095,-3.329 l 0,-0.247 0,4.686 c 0,1.973 0,3.946 0.124,6.165 0,1.973 0,3.946 0.122,6.043 l 0,4.808 0,31.073 -26.14,-16.893 0,-89.026 26.14,0 0,23.057 6.905,8.879 11.468,-31.936 28.237,0 L 10.111,-22.934 29.84,0 0,0 z"
             style="fill:#e5e4e4;fill-opacity:1;fill-rule:nonzero;stroke:none"
             id="path38"
             inkscape:connector-curvature="0" /></g><g
           id="g40"
           transform="translate(400.624,414.9053)"><path
             d="M 0,0 0,-4.686"
             style="fill:#e5e4e4;fill-opacity:1;fill-rule:nonzero;stroke:none"
             id="path42"
             inkscape:connector-curvature="0" /></g><g
           id="g44"
           transform="translate(400.624,410.2197)"><path
             d="M 0,0 0,0.247"
             style="fill:#e5e4e4;fill-opacity:1;fill-rule:nonzero;stroke:none"
             id="path46"
             inkscape:connector-curvature="0" /></g><g
           id="g48"
           transform="translate(519.1201,433.0313)"><path
             d="m 0,0 -26.14,0 0,-43.28 c 0,-4.809 -0.741,-8.015 -2.219,-9.741 -0.124,-0.124 -0.37,-0.247 -0.37,-0.493 -1.604,-1.357 -3.577,-1.973 -5.92,-1.973 -2.835,0 -4.932,0.739 -6.411,2.466 -1.604,1.726 -2.466,5.055 -2.466,10.111 l 0,42.91 -26.142,0 0,-46.239 c 0,-10.112 2.097,-17.88 6.042,-23.059 4.07,-5.425 10.235,-8.138 18.62,-8.138 4.316,0 8.015,0.618 10.974,1.973 2.836,1.357 5.549,2.836 7.892,4.686 l 0,-5.055 26.14,0 L 0,0 z"
             style="fill:#e5e4e4;fill-opacity:1;fill-rule:nonzero;stroke:none"
             id="path50"
             inkscape:connector-curvature="0" /></g><g
           id="g52"
           transform="translate(118.8721,433.4004)"><path
             d="m 0,0 -21.948,0 -2.59,-11.467 c -0.616,-2.466 -1.233,-5.055 -1.726,-8.014 -0.493,-3.083 -1.11,-6.165 -1.726,-9.372 -0.616,-3.206 -1.11,-6.042 -1.603,-8.508 -0.494,-2.713 -0.74,-4.685 -0.863,-6.164 -0.371,1.479 -0.74,3.451 -0.987,6.164 -0.493,2.466 -0.986,5.302 -1.479,8.508 -0.371,3.207 -0.864,6.289 -1.48,9.372 -0.37,2.959 -0.863,5.548 -1.233,7.768 L -38.102,0 l -25.77,0 22.071,-78.175 21.209,0 3.206,15.66 c 0.493,2.343 1.11,4.933 1.603,8.015 0.616,3.082 1.233,6.165 1.849,9.371 0.37,3.083 0.864,5.795 1.357,8.385 0.493,2.836 0.986,4.931 1.109,6.289 0.247,-1.358 0.617,-3.453 1.234,-6.289 0.369,-2.59 0.863,-5.302 1.356,-8.385 0.616,-3.206 1.109,-6.289 1.726,-9.371 0.617,-3.082 1.11,-5.672 1.48,-7.892 l 3.329,-15.783 21.702,0 L 41.43,0 15.783,0 13.81,-11.713 c -0.617,-2.22 -1.11,-4.809 -1.48,-7.768 -0.616,-3.083 -1.109,-6.165 -1.602,-9.372 -0.37,-3.206 -0.864,-6.042 -1.357,-8.508 -0.493,-2.713 -0.74,-4.685 -0.986,-6.164 -0.123,1.479 -0.493,3.451 -0.864,6.164 -0.493,2.466 -0.986,5.302 -1.726,8.508 -0.616,3.207 -1.109,6.289 -1.726,9.372 -0.616,2.959 -1.233,5.548 -1.603,8.014 L 0,0 z"
             style="fill:#e5e4e4;fill-opacity:1;fill-rule:nonzero;stroke:none"
             id="path54"
             inkscape:connector-curvature="0" /></g></g></g><g
       id="g56"><g
         id="g58"><g
           id="g64"><g
             id="g66"><path
               d="m 450.137,487.599 c -1.11,0 -2.219,-0.122 -3.205,-0.245 l 0,0 c -4.316,-0.125 -8.51,-0.37 -12.701,-0.863 l 0,0 c -1.603,-0.124 -3.206,-0.494 -4.686,-0.741 l 0,0 c -0.615,0 -1.11,0 -1.602,-0.246 l 0,0 c -1.111,-0.247 -2.22,-0.37 -3.207,-0.493 l 0,0 c -0.617,-0.124 -1.233,-0.37 -1.973,-0.493 l 0,0 c -5.918,-1.234 -11.467,-2.836 -17.015,-4.81 l 0,0 c -8.756,-3.452 -17.141,-8.014 -24.908,-13.441 l 0,0 c -0.864,-0.739 -1.727,-1.356 -2.59,-1.972 l 0,0 c -1.603,-1.232 -3.082,-2.589 -4.685,-3.945 l 0,0 c -4.439,-3.822 -8.509,-8.015 -11.715,-12.454 l 0,0 c -0.493,-0.493 -0.739,-0.864 -1.108,-1.357 l 0,0 c -0.371,-0.493 -0.741,-1.109 -1.234,-1.727 l 0,0 c -1.357,-1.725 -2.466,-3.699 -3.453,-5.548 l 0,0 c -2.958,-5.425 -5.178,-11.221 -6.411,-17.262 l 0,0 c -0.124,-0.618 -0.124,-1.233 -0.37,-1.974 l 0,0 0,-0.123 c -0.493,-2.712 -0.864,-5.549 -0.987,-8.384 l 0,0 0,-2.343 0,-1.356 c 0,-16.646 5.672,-31.443 17.017,-44.39 l 0,0 c 1.972,-1.973 3.945,-4.068 5.918,-6.042 l 0,0 c 2.343,-2.097 4.563,-4.193 7.028,-6.165 l 0,0 c 20.346,-15.413 44.637,-23.182 72.874,-23.182 l 0,0 c 14.674,0 28.237,2.22 40.568,6.412 l 0,0 41.43,-18.866 c 0.739,-0.37 1.48,-0.37 2.22,-0.123 l 0,0 c 0.985,0.247 1.726,0.616 2.096,0.862 l 0,0 c 0.245,0.864 0.369,1.603 0.245,2.221 l 0,0 c -0.123,0.493 -0.615,1.109 -1.232,1.603 l 0,0 c -10.851,6.782 -17.509,15.412 -19.853,25.893 l 0,0 c 2.59,1.727 5.056,3.33 7.276,5.18 l 0,0 c 20.222,15.659 30.456,34.525 30.456,56.597 l 0,0 c 0,13.44 -3.823,25.647 -11.467,36.621 l 0,0 c -0.987,1.603 -2.22,3.205 -3.33,4.809 l 0,0 c -4.316,5.302 -9.494,10.357 -15.659,15.043 l 0,0 c -5.672,4.315 -11.592,8.014 -18.003,11.221 l 0,0 c -1.232,0.616 -2.343,1.109 -3.452,1.726 l 0,0 c -7.892,3.577 -16.277,6.165 -25.154,7.769 l 0,0 c -0.74,0.123 -1.604,0.246 -2.343,0.493 l 0,0 c -7.521,1.356 -15.536,2.095 -23.798,2.095 l 0,0 -0.987,0 z"
               style="fill:url(#linearGradient68);stroke:none"
               id="path78"
               inkscape:connector-curvature="0" /></g></g></g></g><g
       id="g80"><g
         id="g82"><g
           id="g88"><g
             id="g90"><path
               d="m 182.688,437.784 c -3.699,-0.74 -7.274,-1.849 -10.727,-3.205 l 0,0 c -1.356,-0.616 -2.589,-1.11 -3.946,-1.728 l 0,0 6.659,-17.138 c 4.685,4.192 11.961,6.042 21.947,5.426 l 0,0 c 0.371,0 0.618,0 0.987,-0.123 l 0,0 c 2.713,-0.247 4.686,-0.864 6.165,-1.85 l 0,0 c 1.727,-1.233 2.591,-3.699 2.591,-7.029 l 0,0 0,-3.7 c -9.249,3.947 -18.374,4.44 -27.005,1.481 l 0,0 c -3.082,-1.11 -5.918,-2.713 -8.138,-4.563 l 0,0 c -2.466,-2.097 -4.193,-4.562 -5.548,-7.645 l 0,0 c -1.48,-3.083 -2.097,-6.658 -2.097,-10.728 l 0,0 c 0,-5.548 0.986,-10.234 2.836,-14.18 l 0,0 c 0.987,-1.972 2.343,-3.699 3.946,-5.178 l 0,0 c 4.316,-4.316 10.234,-6.535 17.632,-6.535 l 0,0 c 3.453,0 6.782,0.617 9.865,1.85 l 0,0 c 3.206,1.11 6.043,2.835 8.509,4.685 l 0,0 0,-5.055 24.413,0 0,48.952 c 0,8.877 -2.342,15.659 -7.275,20.714 l 0,0 c -4.808,4.933 -12.453,7.399 -22.934,7.399 l 0,0 c -6.658,0 -12.578,-0.617 -17.88,-1.85 m 10.235,-58.323 c -1.48,0.37 -2.713,1.109 -3.7,2.097 l 0,0 c -1.233,1.602 -1.972,3.575 -1.972,5.919 l 0,0 c 0,3.699 1.356,6.165 3.823,7.274 l 0,0 c 5.795,2.713 10.974,2.343 15.29,-1.356 l 0,0 0,-10.358 c -2.4,-2.676 -5.491,-4.04 -9.323,-4.04 l 0,0 c -1.289,0 -2.66,0.154 -4.118,0.464"
               style="fill:url(#linearGradient92);stroke:none"
               id="path98"
               inkscape:connector-curvature="0" /></g></g></g></g><g
       id="g100"><g
         id="g102"><g
           id="g108"><g
             id="g110"><path
               d="m 235.587,438.401 0,-21.208 14.179,0 c 3.083,0 6.536,0.123 10.358,0.247 l 0,0 c 3.699,0.122 6.782,0.245 9.125,0.37 l 0,0 c -0.987,-0.864 -1.973,-1.974 -3.453,-3.454 l 0,0 c -0.123,0 -0.123,-0.123 -0.247,-0.245 l 0,0 c -1.479,-1.604 -3.082,-3.207 -4.809,-4.81 l 0,0 c -1.602,-1.849 -3.328,-3.577 -5.054,-5.426 l 0,0 c -1.85,-1.85 -3.577,-3.699 -5.18,-5.425 l 0,0 -16.522,-18.126 0,-18.124 66.091,0 0,21.083 -15.783,0 c -3.206,0 -6.659,-0.123 -10.358,-0.123 l 0,0 c -3.206,-0.123 -5.795,-0.246 -7.891,-0.369 l 0,0 -1.357,0 c 0.987,0.986 2.22,2.219 3.699,3.7 l 0,0 c 1.603,1.602 3.083,3.204 4.686,4.807 l 0,0 c 1.727,1.851 3.576,3.577 5.303,5.426 l 0,0 c 1.849,1.849 3.452,3.699 5.055,5.426 l 0,0 16.646,18.126 0,18.125 -64.488,0 z"
               style="fill:url(#linearGradient112);stroke:none"
               id="path118"
               inkscape:connector-curvature="0" /></g></g></g></g><g
       id="g120"><g
         id="g122"><g
           id="g128"><g
             id="g130"><path
               d="m 323.504,437.538 c -4.564,-1.603 -8.386,-4.069 -11.592,-7.274 l 0,0 c -1.849,-1.974 -3.329,-4.194 -4.809,-6.659 l 0,0 c -0.986,-1.85 -1.972,-3.7 -2.589,-5.92 l 0,0 c -1.85,-4.931 -2.713,-10.727 -2.713,-17.262 l 0,0 c 0,-6.659 0.863,-12.455 2.713,-17.386 l 0,0 c 1.726,-4.932 4.317,-9.125 7.398,-12.454 l 0,0 c 3.206,-3.329 7.028,-5.919 11.592,-7.52 l 0,0 c 4.437,-1.728 9.247,-2.714 14.425,-2.714 l 0,0 c 5.302,0 10.112,0.986 14.551,2.714 l 0,0 c 4.439,1.601 8.262,4.191 11.591,7.52 l 0,0 c 0.985,0.987 1.972,2.097 2.711,3.329 l 0,0 c 1.974,2.589 3.577,5.673 4.81,9.125 l 0,0 c 1.849,4.931 2.713,10.727 2.713,17.386 l 0,0 c 0,6.535 -0.864,12.331 -2.713,17.262 l 0,0 c -1.727,5.056 -4.316,9.249 -7.521,12.579 l 0,0 c -3.329,3.205 -7.152,5.671 -11.591,7.274 l 0,0 c -4.439,1.726 -9.249,2.466 -14.551,2.466 l 0,0 c -5.178,0 -9.988,-0.74 -14.425,-2.466 m 4.191,-37.115 c 0,5.301 0.618,9.618 1.85,12.454 l 0,0 c 0.246,0.493 0.37,1.109 0.74,1.479 l 0,0 c 1.726,2.96 4.315,4.439 7.644,4.439 l 0,0 c 3.453,0 6.042,-1.479 7.769,-4.439 l 0,0 c 1.725,-2.835 2.589,-7.521 2.589,-13.933 l 0,0 c 0,-7.892 -1.355,-13.317 -3.945,-16.154 l 0,0 c -1.726,-1.725 -3.823,-2.588 -6.413,-2.588 l 0,0 c -6.904,0 -10.234,6.287 -10.234,18.742"
               style="fill:url(#linearGradient132);stroke:none"
               id="path138"
               inkscape:connector-curvature="0" /></g></g></g></g><g
       id="g140"><g
         id="g142"><g
           id="g148"><g
             id="g150"><path
               d="m 379.731,451.102 0,-89.027 26.139,0 0,23.058 6.905,8.879 11.468,-31.937 28.237,0 -20.345,53.392 19.728,22.934 -29.84,0 -4.932,-6.535 c -0.863,-0.987 -1.849,-2.343 -2.835,-3.946 l 0,0 c -1.233,-1.479 -2.344,-3.082 -3.454,-4.563 l 0,0 c -1.109,-1.602 -2.096,-3.205 -3.082,-4.562 l 0,0 c -0.863,-1.355 -1.725,-2.466 -2.096,-3.328 l 0,0 0,4.438 c 0,1.973 0,3.946 0.124,6.165 l 0,0 c 0,1.973 0,3.946 0.122,6.043 l 0,0 0,4.809 0,31.072 -26.139,-16.892 z"
               style="fill:url(#linearGradient152);stroke:none"
               id="path162"
               inkscape:connector-curvature="0" /></g></g></g></g><g
       id="g164"><g
         id="g166"
         clip-path="url(#clipPath168)"><g
           id="g172"
           transform="translate(405.624,419.9053)"><path
             d="M 0,0 0,-4.686"
             style="fill:none;stroke:none"
             id="path174"
             inkscape:connector-curvature="0" /></g><g
           id="g176"
           transform="translate(405.624,415.2197)"><path
             d="M 0,0 0,0.247"
             style="fill:none;stroke:none"
             id="path178"
             inkscape:connector-curvature="0" /></g></g></g><g
       id="g180"><g
         id="g182"><g
           id="g188"><g
             id="g190"><path
               d="m 497.981,438.031 0,-43.28 c 0,-4.809 -0.742,-8.015 -2.221,-9.741 l 0,0 c -0.124,-0.123 -0.369,-0.247 -0.369,-0.492 l 0,0 c -1.604,-1.358 -3.577,-1.974 -5.921,-1.974 l 0,0 c -2.835,0 -4.931,0.739 -6.409,2.466 l 0,0 c -1.605,1.726 -2.467,5.055 -2.467,10.111 l 0,0 0,42.91 -26.142,0 0,-46.239 c 0,-10.111 2.096,-17.88 6.042,-23.058 l 0,0 c 4.071,-5.426 10.236,-8.138 18.62,-8.138 l 0,0 c 4.316,0 8.015,0.617 10.974,1.973 l 0,0 c 2.836,1.356 5.548,2.835 7.893,4.685 l 0,0 0,-5.054 26.139,0 0,75.831 -26.139,0 z"
               style="fill:url(#linearGradient192);stroke:none"
               id="path202"
               inkscape:connector-curvature="0" /></g></g></g></g><g
       id="g204"><g
         id="g206"><g
           id="g212"><g
             id="g214"><path
               d="m 139.656,438.401 -1.974,-11.714 c -0.617,-2.219 -1.11,-4.809 -1.48,-7.769 l 0,0 c -0.616,-3.082 -1.109,-6.164 -1.602,-9.37 l 0,0 c -0.37,-3.206 -0.864,-6.042 -1.357,-8.509 l 0,0 c -0.493,-2.712 -0.74,-4.684 -0.986,-6.164 l 0,0 c -0.124,1.48 -0.493,3.452 -0.863,6.164 l 0,0 c -0.494,2.467 -0.987,5.303 -1.727,8.509 l 0,0 c -0.616,3.206 -1.109,6.288 -1.726,9.37 l 0,0 c -0.616,2.96 -1.233,5.55 -1.603,8.016 l 0,0 -2.466,11.467 -21.948,0 -2.59,-11.467 c -0.617,-2.466 -1.233,-5.056 -1.726,-8.016 l 0,0 c -0.493,-3.082 -1.11,-6.164 -1.726,-9.37 l 0,0 c -0.616,-3.206 -1.11,-6.042 -1.603,-8.509 l 0,0 c -0.494,-2.712 -0.74,-4.684 -0.863,-6.164 l 0,0 c -0.37,1.48 -0.74,3.452 -0.987,6.164 l 0,0 c -0.493,2.467 -0.986,5.303 -1.479,8.509 l 0,0 c -0.371,3.206 -0.864,6.288 -1.48,9.37 l 0,0 c -0.37,2.96 -0.863,5.55 -1.233,7.769 l 0,0 -2.466,11.714 -25.771,0 22.071,-78.175 21.209,0 3.206,15.66 c 0.493,2.343 1.11,4.933 1.603,8.014 l 0,0 c 0.617,3.082 1.233,6.165 1.85,9.371 l 0,0 c 0.37,3.084 0.863,5.795 1.356,8.385 l 0,0 c 0.493,2.836 0.986,4.932 1.11,6.29 l 0,0 c 0.246,-1.358 0.616,-3.454 1.233,-6.29 l 0,0 c 0.37,-2.59 0.863,-5.301 1.356,-8.385 l 0,0 c 0.616,-3.206 1.11,-6.289 1.726,-9.371 l 0,0 c 0.617,-3.081 1.11,-5.671 1.481,-7.891 l 0,0 3.329,-15.783 21.701,0 22.071,78.175 -25.646,0 z"
               style="fill:url(#linearGradient216);stroke:none"
               id="path222"
               inkscape:connector-curvature="0" /></g></g></g></g></g></svg>